<svg id="Layer_1" data-name="Layer 1" xmlns="http://www.w3.org/2000/svg" viewBox="0 0 1366 768"><defs><style>.cls-1{fill:#ebd4cb;}.cls-2,.cls-8{fill:none;stroke:#000;stroke-width:2px;}.cls-2{stroke-miterlimit:10;}.cls-3{font-size:40px;}.cls-3,.cls-4,.cls-5{font-family:FuturaPT-Book, Futura PT;}.cls-4{font-size:52.67px;}.cls-5{font-size:15.26px;}.cls-6{letter-spacing:-0.02em;}.cls-7{letter-spacing:-0.04em;}.cls-8{stroke-linecap:round;stroke-linejoin:round;}</style></defs><rect class="cls-1" width="1366" height="768"/><polygon class="cls-2" points="399.23 150.15 263.15 333.98 399.23 333.98 535.32 333.98 399.23 150.15"/><text class="cls-3" transform="translate(386.79 143.73)">A</text><text class="cls-3" transform="translate(234.11 366.64)">B</text><text class="cls-3" transform="translate(538.66 366.64)">C</text><polygon class="cls-2" points="936.52 120.57 757.32 362.64 936.52 362.64 1115.71 362.64 936.52 120.57"/><text class="cls-4" transform="translate(920.14 112.12)">P</text><text class="cls-4" transform="translate(719.08 405.64)">Q</text><text class="cls-4" transform="translate(1120.11 405.64)">R</text><text class="cls-3" transform="translate(589.98 209.05)">Similar to</text><text class="cls-3" transform="translate(151.51 209.05)">Given:</text><polygon class="cls-2" points="354.56 484.38 302.64 554.52 354.56 554.52 406.48 554.52 354.56 484.38"/><text class="cls-5" transform="translate(349.81 481.94)">A</text><text class="cls-5" transform="translate(291.56 566.98)">B</text><text class="cls-5" transform="translate(407.75 566.98)">C</text><text class="cls-3" transform="translate(164.94 530.27)">A<tspan class="cls-6" x="24.88" y="0">r</tspan><tspan x="35.76" y="0">ea of</tspan></text><text class="cls-3" transform="translate(514.2 530.27)"><tspan class="cls-7">2</tspan><tspan x="21.2" y="0">88m²</tspan></text><line class="cls-8" x1="431.48" y1="507.58" x2="469.26" y2="507.58"/><line class="cls-8" x1="431.48" y1="532.43" x2="469.26" y2="532.43"/><polygon class="cls-2" points="878.34 484.38 826.42 554.52 878.34 554.52 930.26 554.52 878.34 484.38"/><text class="cls-5" transform="translate(873.59 481.94)">P</text><text class="cls-5" transform="translate(815.34 566.98)">Q</text><text class="cls-5" transform="translate(931.53 566.98)">R</text><text class="cls-3" transform="translate(706.42 530.27)">A<tspan class="cls-6" x="24.88" y="0">r</tspan><tspan x="35.76" y="0">ea of</tspan></text><text class="cls-3" transform="translate(1039.74 530.27)">800m²</text><line class="cls-8" x1="959.48" y1="507.58" x2="997.27" y2="507.58"/><line class="cls-8" x1="959.48" y1="532.43" x2="997.27" y2="532.43"/><text class="cls-3" transform="translate(557.14 637.56)">Find BC/QR</text></svg>