<svg id="Layer_1" data-name="Layer 1" xmlns="http://www.w3.org/2000/svg" viewBox="0 0 1366 768"><defs><style>.cls-1{fill:#ebd4cb;}.cls-2,.cls-9{fill:none;stroke:#000;stroke-width:2px;}.cls-2{stroke-miterlimit:10;}.cls-3{font-size:40px;}.cls-10,.cls-3,.cls-4,.cls-7{font-family:FuturaPT-Book, Futura PT;}.cls-4{font-size:52.67px;}.cls-5{letter-spacing:-0.07em;}.cls-6{letter-spacing:-0.01em;}.cls-7{font-size:15.26px;}.cls-8{letter-spacing:-0.02em;}.cls-9{stroke-linecap:round;stroke-linejoin:round;}.cls-10{font-size:64.44px;}.cls-11{letter-spacing:-0.02em;}</style></defs><rect class="cls-1" width="1366" height="768"/><polygon class="cls-2" points="399.23 150.15 263.15 333.98 399.23 333.98 535.32 333.98 399.23 150.15"/><text class="cls-3" transform="translate(386.79 143.73)">A</text><text class="cls-3" transform="translate(234.11 366.64)">B</text><text class="cls-3" transform="translate(538.66 366.64)">C</text><polygon class="cls-2" points="936.52 120.57 757.32 362.64 936.52 362.64 1115.71 362.64 936.52 120.57"/><text class="cls-4" transform="translate(920.14 112.12)">P</text><text class="cls-4" transform="translate(719.08 405.64)">Q</text><text class="cls-4" transform="translate(1120.11 405.64)">R</text><text class="cls-3" transform="translate(589.98 209.05)">Similar to</text><text class="cls-3" transform="translate(625.86 478.52)"><tspan class="cls-5">T</tspan><tspan class="cls-6" x="14.16" y="0">h</tspan><tspan x="32.56" y="0">en</tspan></text><polygon class="cls-2" points="289.28 536.8 237.36 606.93 289.28 606.93 341.2 606.93 289.28 536.8"/><text class="cls-7" transform="translate(284.53 534.35)">A</text><text class="cls-7" transform="translate(226.28 619.39)">B</text><text class="cls-7" transform="translate(342.47 619.39)">C</text><polygon class="cls-2" points="289.28 660.73 237.36 730.86 289.28 730.86 341.2 730.86 289.28 660.73"/><text class="cls-7" transform="translate(284.53 658.28)">P</text><text class="cls-7" transform="translate(226.28 743.32)">Q</text><text class="cls-7" transform="translate(342.47 743.32)">R</text><text class="cls-3" transform="translate(99.66 582.13)">A<tspan class="cls-8" x="24.88" y="0">r</tspan><tspan x="35.76" y="0">ea of</tspan></text><text class="cls-3" transform="translate(99.66 696.43)">A<tspan class="cls-8" x="24.88" y="0">r</tspan><tspan x="35.76" y="0">ea of</tspan></text><line class="cls-2" x1="99.66" y1="640.74" x2="351.57" y2="640.74"/><line class="cls-9" x1="436.98" y1="628.32" x2="474.77" y2="628.32"/><line class="cls-9" x1="436.98" y1="653.17" x2="474.77" y2="653.17"/><line class="cls-9" x1="770.17" y1="628.32" x2="807.96" y2="628.32"/><line class="cls-9" x1="770.17" y1="653.17" x2="807.96" y2="653.17"/><line class="cls-9" x1="1032.89" y1="628.32" x2="1070.68" y2="628.32"/><line class="cls-9" x1="1032.89" y1="653.17" x2="1070.68" y2="653.17"/><text class="cls-10" transform="translate(562.5 599.42)">(AB)^2</text><text class="cls-10" transform="translate(562.5 706.59)">(PQ)^2</text><line class="cls-2" x1="562.5" y1="630.32" x2="743.64" y2="630.32"/><text class="cls-10" transform="translate(825.2 601.45)">(BC)^2</text><text class="cls-10" transform="translate(825.2 708.62)">(QR)^2</text><line class="cls-2" x1="825.2" y1="632.35" x2="1006.34" y2="632.35"/><text class="cls-10" transform="translate(1087.9 601.45)">(<tspan class="cls-11" x="18.94" y="0">A</tspan><tspan x="57.67" y="0">C)^2</tspan></text><text class="cls-10" transform="translate(1087.9 708.62)">(PR)^2</text><line class="cls-2" x1="1087.9" y1="632.35" x2="1269.04" y2="632.35"/></svg>